<mxfile host="app.diagrams.net" modified="2020-12-07T10:46:55.623Z" agent="5.0 (Windows)" etag="v8gYHXugJ1HXxY3o9tfx" version="13.10.9" type="github">
  <diagram id="Zx1dG4DpTfShDo4Bo3dC" name="Page-1">
    <mxGraphModel dx="1038" dy="547" grid="1" gridSize="10" guides="1" tooltips="1" connect="1" arrows="1" fold="1" page="1" pageScale="1" pageWidth="1169" pageHeight="827" math="0" shadow="0">
      <root>
        <mxCell id="0" />
        <mxCell id="1" parent="0" />
        <mxCell id="m1Sieag7AhXBVNLB1uYE-1" value="STORES ISSUANCE AND STOCK MANAGEMENT" style="swimlane;" vertex="1" parent="1">
          <mxGeometry x="10" y="10" width="1150" height="810" as="geometry" />
        </mxCell>
        <mxCell id="m1Sieag7AhXBVNLB1uYE-2" value="Start" style="rounded=1;whiteSpace=wrap;html=1;" vertex="1" parent="m1Sieag7AhXBVNLB1uYE-1">
          <mxGeometry x="300" y="50" width="100" height="50" as="geometry" />
        </mxCell>
        <mxCell id="m1Sieag7AhXBVNLB1uYE-5" value="" style="rounded=0;whiteSpace=wrap;html=1;" vertex="1" parent="m1Sieag7AhXBVNLB1uYE-1">
          <mxGeometry x="290" y="180" width="120" height="60" as="geometry" />
        </mxCell>
        <mxCell id="m1Sieag7AhXBVNLB1uYE-4" value="" style="edgeStyle=orthogonalEdgeStyle;rounded=0;orthogonalLoop=1;jettySize=auto;html=1;entryX=0.5;entryY=0;entryDx=0;entryDy=0;" edge="1" parent="m1Sieag7AhXBVNLB1uYE-1" source="m1Sieag7AhXBVNLB1uYE-2" target="m1Sieag7AhXBVNLB1uYE-5">
          <mxGeometry relative="1" as="geometry">
            <mxPoint x="350" y="175" as="targetPoint" />
          </mxGeometry>
        </mxCell>
      </root>
    </mxGraphModel>
  </diagram>
</mxfile>
